<svg viewBox="0 0 183 33" fill="none" xmlns="http://www.w3.org/2000/svg">
  <path d="M31.3719 32.6972L42.8749 17.679H46.6237V14.3018H42.8749L31.5259 0H26.6731L39.6653 16.2974L39.691 15.2484L26.3393 32.6972H31.3719Z" fill="#5964FA"/>
  <path d="M15.2518 32.6972L3.74876 17.679H0V14.3018H3.74876L15.0977 0H19.9506L6.9583 16.2974L6.93263 15.2484L20.2844 32.6972H15.2518Z" fill="#5964FA"/>
  <path d="M78.2713 33L66.741 17.9952H62.9834V14.621H66.741L78.1169 0.33194H82.9812L69.9582 16.6148L69.9324 15.5668L83.3158 33H78.2713ZM59.0713 33V0.33194H63.3179V33H59.0713Z" fill="#5964FA"/>
  <path d="M94.0434 33H89.771V0.33194H94.0434V33ZM92.0616 29.3958H109.409V33H92.0616V29.3958Z" fill="#5964FA"/>
  <path d="M116.198 33V0.33194H120.419V33H116.198ZM117.459 33V29.4469H136.711V33H117.459ZM118.617 18.0974V14.5699H136.17V18.0974H118.617ZM117.433 3.88504V0.33194H136.556V3.88504H117.433Z" fill="#5964FA"/>
  <path d="M149.01 33H144.737V0.33194H149.01V33Z" fill="#5964FA"/>
  <path d="M164.881 0.33194L178.238 28.45H178.547L178.367 14.1865V0.33194H182.537V33H176.205L162.693 4.6519H162.384L162.564 19.58V33H158.395V0.33194H164.881Z" fill="#5964FA"/>
</svg>