<svg height="20" viewBox="0 0 11 14" fill="none" xmlns="http://www.w3.org/2000/svg">
  <path
    d="M5.30413 3.42085C5.30413 3.4672 5.26128 3.4672 5.26128 3.4672H5.21842C5.17557 3.4672 5.17557 3.42085 5.13271 3.3745C5.13271 3.3745 5.08985 3.32815 5.08985 3.28179C5.08985 3.23544 5.08985 3.23544 5.13271 3.23544L5.21842 3.28179C5.26128 3.32815 5.30413 3.3745 5.30413 3.42085ZM4.5327 2.95731C4.5327 2.72556 4.44698 2.5865 4.31839 2.5865C4.31839 2.5865 4.31839 2.63285 4.27553 2.63285V2.72556H4.40413C4.40413 2.81826 4.44698 2.86461 4.44698 2.95731H4.5327ZM6.03274 2.72556C6.11845 2.72556 6.16131 2.81826 6.20417 2.95731H6.28988C6.24702 2.91096 6.24702 2.86461 6.24702 2.81826C6.24702 2.77191 6.24702 2.72556 6.20417 2.67921C6.16131 2.63285 6.11845 2.5865 6.0756 2.5865C6.0756 2.5865 6.03274 2.63285 5.98986 2.63285C5.98986 2.67921 6.03274 2.67921 6.03274 2.72556ZM4.74698 3.4672C4.70412 3.4672 4.70412 3.4672 4.70412 3.42085C4.70412 3.3745 4.70412 3.32815 4.74698 3.28179C4.83269 3.28179 4.87555 3.23544 4.87555 3.23544C4.91843 3.23544 4.91843 3.28179 4.91843 3.28179C4.91843 3.32815 4.87555 3.3745 4.78983 3.4672H4.74698ZM4.27553 3.42085C4.10411 3.32815 4.06125 3.18909 4.06125 2.95731C4.06125 2.81826 4.06125 2.72556 4.14696 2.63285C4.18982 2.54015 4.27553 2.4938 4.36127 2.4938C4.44698 2.4938 4.48984 2.54015 4.57555 2.63285C4.61841 2.77191 4.66126 2.91096 4.66126 3.05004V3.09639V3.14274H4.70412V3.09639C4.74698 3.09639 4.74698 3.00366 4.74698 2.81826C4.74698 2.67921 4.74698 2.54015 4.66126 2.40107C4.57555 2.26202 4.48984 2.16932 4.31839 2.16932C4.18982 2.16932 4.06125 2.26202 4.01839 2.40107C3.93268 2.5865 3.91554 2.72556 3.91554 2.95731C3.91554 3.14274 3.97554 3.32815 4.14696 3.51355C4.18982 3.4672 4.23268 3.4672 4.27553 3.42085ZM9.63282 9.95663C9.67568 9.95663 9.67568 9.93809 9.67568 9.89637C9.67568 9.79439 9.63282 9.67387 9.50425 9.53944C9.37568 9.40039 9.16138 9.31231 8.90424 9.27524C8.86138 9.27059 8.81853 9.27059 8.81853 9.27059C8.77565 9.26134 8.77565 9.26134 8.73279 9.26134C8.68994 9.25671 8.60422 9.24743 8.56137 9.23815C8.68994 8.80708 8.73279 8.42697 8.73279 8.09323C8.73279 7.62972 8.64708 7.30523 8.47565 7.02713C8.30423 6.749 8.13278 6.60994 7.9185 6.56359C7.87564 6.60994 7.87564 6.60994 7.87564 6.65629C8.08992 6.749 8.30423 6.9344 8.4328 7.21253C8.56137 7.53699 8.60422 7.81512 8.60422 8.13958C8.60422 8.39917 8.56137 8.78389 8.38994 9.27524C8.21849 9.34941 8.04707 9.52091 7.9185 9.78976C7.9185 9.83148 7.9185 9.85464 7.96135 9.85464C7.96135 9.85464 8.00421 9.81292 8.04707 9.73413C8.13278 9.65533 8.17564 9.57654 8.26137 9.49774C8.38994 9.41892 8.47565 9.37723 8.60422 9.37723C8.81853 9.37723 9.03281 9.40967 9.16138 9.47456C9.33281 9.53481 9.41854 9.5997 9.4614 9.67387C9.50425 9.74341 9.54711 9.80829 9.58997 9.86855C9.58997 9.92881 9.63282 9.95663 9.63282 9.95663ZM5.68987 3.23544C5.64701 3.18909 5.64701 3.09639 5.64701 3.00366C5.64701 2.81826 5.64701 2.72556 5.73272 2.5865C5.81844 2.4938 5.90415 2.44745 5.98986 2.44745C6.11845 2.44745 6.20417 2.54015 6.28988 2.63285C6.33274 2.77191 6.37559 2.86461 6.37559 3.00366C6.37559 3.23544 6.28988 3.3745 6.11845 3.42085C6.11845 3.42085 6.16131 3.4672 6.20417 3.4672C6.28988 3.4672 6.33274 3.51355 6.41845 3.5599C6.46131 3.28179 6.50416 3.09639 6.50416 2.86461C6.50416 2.5865 6.46131 2.40107 6.37559 2.26202C6.24702 2.12297 6.11845 2.07661 5.94701 2.07661C5.81844 2.07661 5.68987 2.12297 5.5613 2.21567C5.47558 2.35472 5.4327 2.44745 5.4327 2.5865C5.4327 2.81826 5.47558 3.00366 5.5613 3.18909C5.60415 3.18909 5.64701 3.23544 5.68987 3.23544ZM6.20417 3.97709C5.64701 4.39427 5.21842 4.57968 4.87555 4.57968C4.57555 4.57968 4.27553 4.44062 4.01839 4.20884C4.06125 4.30157 4.10411 4.39427 4.14696 4.44062L4.40413 4.71873C4.57555 4.90416 4.78983 4.99686 5.00414 4.99686C5.30413 4.99686 5.64701 4.81143 6.0756 4.48697L6.46131 4.20884C6.54702 4.11614 6.63275 4.02344 6.63275 3.88438C6.63275 3.83803 6.63275 3.79168 6.5899 3.79168C6.54702 3.69898 6.33274 3.5599 5.90415 3.42085C5.51844 3.23544 5.21842 3.14274 5.047 3.14274C4.91843 3.14274 4.70412 3.23544 4.40413 3.42085C4.14696 3.60625 3.97554 3.79168 3.97554 3.97709C3.97554 3.97709 4.01839 4.02344 4.06125 4.11614C4.31839 4.34792 4.57555 4.48697 4.83269 4.48697C5.17557 4.48697 5.60415 4.30157 6.16131 3.83803V3.93074C6.20417 3.93074 6.20417 3.97709 6.20417 3.97709ZM7.18991 13.3404C7.36134 13.689 7.66133 13.8642 8.00421 13.8642C8.08992 13.8642 8.17564 13.8503 8.26137 13.8225C8.34708 13.8039 8.4328 13.7715 8.47565 13.7344C8.51851 13.702 8.56137 13.6695 8.60422 13.6324C8.68994 13.6 8.68994 13.5768 8.73279 13.5536L9.4614 12.8722C9.63282 12.7244 9.80425 12.5951 10.0186 12.4829C10.19 12.3716 10.3614 12.2974 10.4471 12.2557C10.5757 12.2186 10.6614 12.163 10.7471 12.0889C10.79 12.0193 10.8329 11.9313 10.8329 11.82C10.8329 11.6856 10.7471 11.5836 10.6614 11.5095C10.5757 11.4353 10.49 11.3843 10.4043 11.3519C10.3186 11.3194 10.2328 11.2453 10.1043 11.1201C10.0186 10.9996 9.93284 10.8327 9.88999 10.6148L9.84711 10.346C9.80425 10.2208 9.80425 10.1281 9.76139 10.0771C9.76139 10.0632 9.76139 10.0586 9.71854 10.0586C9.67568 10.0586 9.58997 10.1003 9.54711 10.1791C9.4614 10.2579 9.37569 10.346 9.28995 10.4387C9.24709 10.5314 9.11852 10.6148 9.03281 10.6936C8.90424 10.7724 8.77565 10.8142 8.68994 10.8142C8.34708 10.8142 8.17564 10.7122 8.04707 10.5129C7.96135 10.3645 7.9185 10.193 7.87564 9.99835C7.78993 9.91956 7.74707 9.87783 7.66133 9.87783C7.44705 9.87783 7.36134 10.1189 7.36134 10.6056V10.7585V11.2962V11.7088V11.9081V12.0472C7.36134 12.0889 7.31848 12.1816 7.31848 12.3253C7.27563 12.469 7.27562 12.6321 7.27562 12.8166L7.18991 13.3311V13.339V13.3404ZM0.975455 13.0938C1.37404 13.1568 1.83262 13.2917 2.3512 13.4975C2.86978 13.7015 3.18694 13.8081 3.30267 13.8081C3.60267 13.8081 3.85125 13.6644 4.05697 13.3868C4.09983 13.2968 4.09983 13.1911 4.09983 13.0697C4.09983 12.6317 3.85553 12.0777 3.36694 11.4056L3.07551 10.9838C3.01551 10.8958 2.94266 10.7613 2.84836 10.5805C2.75835 10.3998 2.67694 10.2607 2.61264 10.1634C2.55693 10.0568 2.46693 9.95014 2.3512 9.84353C2.23977 9.73692 2.1112 9.66738 1.96977 9.63029C1.78976 9.66738 1.66547 9.73227 1.60547 9.82035C1.54547 9.90842 1.51118 10.0058 1.50261 10.1077C1.48975 10.2051 1.46404 10.27 1.42118 10.3024C1.37832 10.3302 1.30546 10.3534 1.20689 10.3766C1.18546 10.3766 1.14689 10.3766 1.09117 10.3812H0.975455C0.748306 10.3812 0.594016 10.409 0.512586 10.4554C0.40544 10.5898 0.349724 10.7428 0.349724 10.905C0.349724 10.9792 0.366867 11.1043 0.401154 11.2805C0.43544 11.452 0.452585 11.591 0.452585 11.6884C0.452585 11.8784 0.401154 12.0685 0.294009 12.2585C0.186863 12.4578 0.131147 12.6062 0.131147 12.7119C0.174004 12.8917 0.45687 13.0182 0.975455 13.0924V13.0938ZM2.40264 8.87891C2.40264 8.55908 2.47977 8.2068 2.63836 7.78962C2.79265 7.37244 2.94694 7.09433 3.09694 6.90892C3.08836 6.86257 3.06695 6.86257 3.03265 6.86257L2.98979 6.81622C2.8655 6.95527 2.71549 7.27973 2.53549 7.74327C2.3555 8.16045 2.26121 8.54517 2.26121 8.82793C2.26121 9.03652 2.30834 9.2173 2.39406 9.37489C2.48835 9.52787 2.71549 9.75035 3.07551 10.0331L3.52981 10.3529C4.01412 10.8072 4.27125 11.1224 4.27125 11.3078C4.27125 11.4052 4.2284 11.5025 4.09983 11.6091C4.01412 11.7204 3.89838 11.776 3.79981 11.776C3.79125 11.776 3.78695 11.7852 3.78695 11.8084C3.78695 11.8131 3.82981 11.9058 3.91982 12.0865C4.09983 12.3508 4.48554 12.4806 4.99984 12.4806C5.94273 12.4806 6.67131 12.0634 7.22847 11.229C7.22847 10.9973 7.22847 10.8536 7.18561 10.7933V10.6218C7.18561 10.3205 7.22847 10.0934 7.3142 9.94503C7.39992 9.7967 7.48563 9.72719 7.6142 9.72719C7.69991 9.72719 7.78563 9.75963 7.87136 9.82917C7.91422 9.47224 7.91422 9.16167 7.91422 8.88356C7.91422 8.46175 7.91422 8.1141 7.82848 7.78962C7.78562 7.51151 7.69991 7.27973 7.6142 7.09433C7.52849 6.95528 7.44277 6.81622 7.35706 6.67714C7.27132 6.53809 7.22847 6.39904 7.14275 6.25998C7.0999 6.07456 7.05704 5.9355 7.05704 5.70375C6.92847 5.47197 6.84276 5.24021 6.71417 5.00845C6.62845 4.77667 6.54274 4.54492 6.45703 4.35949L6.0713 4.68397C5.64273 5.00845 5.29986 5.14751 4.99984 5.14751C4.7427 5.14751 4.52842 5.10116 4.39982 4.91573L4.14268 4.68397C4.14268 4.82303 4.09983 5.00845 4.01412 5.19386L3.74409 5.7501C3.6241 6.07455 3.55981 6.25998 3.54695 6.39904C3.52981 6.49174 3.51695 6.58444 3.50837 6.58444L3.18694 7.27973C2.83978 7.97502 2.66408 8.61934 2.66408 9.15241C2.66408 9.25902 2.67264 9.37026 2.6898 9.4815C2.49693 9.33782 2.40264 9.1385 2.40264 8.87891ZM5.47128 13.2639C4.91412 13.2639 4.48554 13.3455 4.18554 13.5073V13.4934C3.97126 13.7715 3.73124 13.9152 3.39694 13.9152C3.18694 13.9152 2.85694 13.8271 2.41122 13.651C1.96119 13.4841 1.56261 13.3561 1.21546 13.2718C1.18117 13.2611 1.10403 13.2454 0.97974 13.2241C0.859737 13.2032 0.748306 13.1819 0.649731 13.1605C0.559728 13.1397 0.45687 13.1082 0.345439 13.0655C0.238293 13.0289 0.152575 12.9812 0.0882883 12.9232C0.0291427 12.8648 0 12.799 0 12.7253C0 12.6511 0.0145719 12.5719 0.0437157 12.4875C0.0711456 12.4365 0.101145 12.3855 0.131147 12.3392C0.161147 12.2882 0.186863 12.2418 0.204005 12.1955C0.229719 12.1538 0.246864 12.112 0.264007 12.0657C0.281149 12.024 0.298294 11.9822 0.306866 11.9313C0.315437 11.8849 0.324008 11.8386 0.324008 11.7922C0.324008 11.7459 0.306866 11.6068 0.272578 11.3611C0.238293 11.1201 0.221148 10.9671 0.221148 10.9022C0.221148 10.6983 0.264007 10.536 0.358296 10.4202C0.452585 10.3043 0.542586 10.244 0.636874 10.244H1.12974C1.16832 10.244 1.22832 10.2208 1.31832 10.1652C1.34832 10.0911 1.37404 10.0308 1.39118 9.97516C1.41261 9.91956 1.42118 9.87783 1.42975 9.8593C1.43832 9.83148 1.44689 9.80367 1.45547 9.78048C1.47261 9.74803 1.49404 9.71096 1.52404 9.67387C1.48975 9.62752 1.47261 9.56726 1.47261 9.49309C1.47261 9.44211 1.47261 9.39576 1.48118 9.36795C1.48118 9.20108 1.55404 8.96467 1.70833 8.65412L1.85833 8.36208C1.98262 8.11179 2.0769 7.92636 2.14548 7.74096C2.21835 7.55555 2.29549 7.27742 2.3812 6.90661C2.44977 6.58213 2.61264 6.25765 2.86978 5.93319L3.19124 5.516C3.4141 5.2379 3.55981 5.00612 3.64124 4.82071C3.72268 4.63531 3.76553 4.40353 3.76553 4.21812C3.76553 4.12542 3.74409 3.84729 3.69696 3.38378C3.6541 2.92024 3.63266 2.45671 3.63266 2.03953C3.63266 1.71506 3.65838 1.48329 3.7141 1.25153C3.76981 1.01977 3.86839 0.788001 4.01412 0.602589C4.14268 0.417177 4.31411 0.231765 4.57127 0.139058C4.82841 0.0463536 5.12843 0 5.47128 0C5.59985 0 5.72844 -7.18342e-09 5.85701 0.0463536C5.98558 0.0463536 6.15701 0.0927071 6.37131 0.185412C6.54274 0.278119 6.71417 0.370824 6.84276 0.509884C7.01418 0.648943 7.14275 0.880706 7.27132 1.11247C7.35706 1.39059 7.44277 1.66871 7.48563 2.03953C7.52849 2.2713 7.52849 2.50306 7.57134 2.82754C7.57134 3.10565 7.6142 3.29107 7.6142 3.43013C7.65706 3.56918 7.65705 3.75459 7.69991 3.98637C7.74277 4.17177 7.78563 4.35718 7.87136 4.49625C7.95707 4.68166 8.04279 4.86706 8.17136 5.05247C8.29993 5.28425 8.47137 5.516 8.6428 5.79413C9.02853 6.25765 9.32853 6.76753 9.49995 7.27742C9.71426 7.74096 9.84283 8.34354 9.84283 8.98786C9.84283 9.30769 9.79997 9.61826 9.71426 9.91956C9.79997 9.91956 9.84283 9.95663 9.88568 10.0215C9.92854 10.0864 9.9714 10.2255 10.0143 10.4433L10.0571 10.7863C10.1 10.8883 10.1428 10.9857 10.2714 11.0691C10.3571 11.1525 10.4428 11.2221 10.5714 11.2777C10.6571 11.324 10.7857 11.3889 10.8714 11.4724C10.9571 11.5651 11 11.6624 11 11.7644C11 11.922 10.9571 12.0379 10.8714 12.1213C10.7857 12.214 10.7 12.2789 10.5714 12.3206C10.4857 12.367 10.3143 12.4597 10.0571 12.5904C9.84283 12.7276 9.62854 12.894 9.41424 13.091L8.98568 13.4855C8.81423 13.6663 8.6428 13.796 8.51423 13.8749C8.38564 13.9583 8.21421 14 8.04279 14L7.74277 13.9629C7.39992 13.8656 7.18561 13.6802 7.05704 13.3974C6.37131 13.3075 5.81416 13.263 5.47128 13.263"
    fill="#445A72" />
</svg>
  