<svg width="12" height="14" viewBox="0 0 12 14" fill="none" xmlns="http://www.w3.org/2000/svg">
  <path
    d="M11.7485 10.9103C11.5331 11.3994 11.278 11.8496 10.9826 12.2635C10.5798 12.8279 10.25 13.2185 9.99589 13.4354C9.60193 13.7914 9.17984 13.9737 8.72782 13.9841C8.40334 13.9841 8.01201 13.8934 7.55651 13.7093C7.09949 13.5261 6.6795 13.4354 6.29547 13.4354C5.89272 13.4354 5.46077 13.5261 4.99874 13.7093C4.53602 13.8934 4.16324 13.9893 3.87824 13.9988C3.4448 14.017 3.01275 13.8294 2.58151 13.4354C2.30625 13.1994 1.96199 12.795 1.54955 12.2221C1.10705 11.6102 0.743252 10.9008 0.458244 10.0919C0.153011 9.21821 0 8.37219 0 7.55312C0 6.61489 0.206302 5.80569 0.619522 5.12757C0.944278 4.58288 1.37632 4.15322 1.91704 3.8378C2.45778 3.52236 3.04203 3.36164 3.67124 3.35135C4.0155 3.35135 4.46697 3.456 5.02802 3.66168C5.58747 3.86804 5.94672 3.97269 6.10421 3.97269C6.22196 3.97269 6.62102 3.85033 7.29753 3.60636C7.93727 3.38012 8.47721 3.28646 8.91953 3.32335C10.1181 3.41841 11.0186 3.88272 11.6175 4.71924C10.5455 5.35752 10.0152 6.25152 10.0258 7.39835C10.0355 8.29165 10.3652 9.035 11.0133 9.62524C11.3071 9.89917 11.6351 10.1109 12 10.2613C11.9209 10.4868 11.8373 10.7029 11.7485 10.9103ZM8.99957 0.28008C8.99957 0.980241 8.73927 1.63398 8.22044 2.23907C7.59431 2.95841 6.837 3.37407 6.01574 3.30848C6.00527 3.22448 5.99922 3.13607 5.99922 3.04318C5.99922 2.37102 6.29697 1.65169 6.82574 1.06354C7.08973 0.765745 7.42547 0.518133 7.83263 0.32061C8.23889 0.126032 8.62318 0.018427 8.98461 0C8.99516 0.0936006 8.99957 0.187216 8.99957 0.28008Z"
    fill="#445A72" />
</svg>
  